:FULLY-SPECIFIED
:FORCE-ALL-JOINTS-BE-3DOF
:DEGREES
849
root 3.72693 16.3653 27.8874 -7.89713 5.27936 -2.40356
lfemur -23.5553 1.93395 -13.6212
ltibia 34.4679 -0 0
lfoot -3.89642 -13.5681 0.039868
ltoes 6.38023 -0 0
rfemur -25.1453 -4.83639 5.33638
rtibia 69.1781 -0 0
rfoot 19.3334 10.2697 0.481869
rtoes -16.6729 0 0
lowerback 3.32349 3.10425 -0.439851
upperback 0.834795 4.1313 0.409881
thorax -0.907744 2.07139 0.825715
lowerneck -6.29043 -3.40074 2.85884
upperneck 8.56144 -5.02282 1.79349
head 3.88575 -2.30362 -0.173692
lclavicle 2.6822e-14 -1.23724e-14 -1.81262e-31
lhumerus -49.6103 -9.92354 84.7712
lradius 54.0912 -0 0
lwrist 19.0413 0 0
lhand -0.995147 4.46519 -0.00412639
lfingers 7.12502 -0 0
lthumb 24.6255 32.7872 -0.0426473
rclavicle 2.6822e-14 -1.23724e-14 -1.81262e-31
rhumerus -38.2632 16.1638 -70.613
rradius 54.3726 -0 0
rwrist 4.94034 0 0
rhand -25.794 -26.6781 -0.153321
rfingers 7.12502 -0 0
rthumb 0.742593 -56.4905 -0.136599
850
root 3.75401 16.3881 28.0225 -8.63452 6.5595 -2.19654
lfemur -22.4355 2.29235 -14.2304
ltibia 34.4456 -0 0
lfoot -3.97005 -14.9086 0.0433974
ltoes 8.1097 -0 0
rfemur -28.6192 -4.42843 5.39323
rtibia 68.2909 -0 0
rfoot 18.2301 9.18787 0.52456
rtoes -15.2257 0 0
lowerback 4.28412 2.61596 -0.806671
upperback 1.17036 3.46092 0.279252
thorax -1.08496 1.7375 0.913921
lowerneck -6.30279 -3.39665 2.81016
upperneck 8.51824 -5.02482 1.9319
head 3.87857 -2.30056 -0.1195
lclavicle 2.61665e-14 -1.3056e-14 -1.97272e-31
lhumerus -48.344 -11.1334 84.4908
lradius 54.2208 -0 0
lwrist 19.4254 0 0
lhand -0.170839 4.4528 -0.00449119
lfingers 7.12502 -0 0
lthumb 25.4142 32.6535 -0.0464173
rclavicle 2.61665e-14 -1.3056e-14 -1.97272e-31
rhumerus -39.2451 14.4196 -68.9788
rradius 54.128 -0 0
rwrist 4.5433 0 0
rhand -24.5216 -26.9764 -0.166893
rfingers 7.12502 -0 0
rthumb 1.97093 -56.7658 -0.148689
851
root 3.78186 16.4114 28.1615 -9.39006 7.87846 -2.00042
lfemur -21.2878 2.67319 -14.8496
ltibia 34.4227 -0 0
lfoot -4.04583 -16.2871 0.0452292
ltoes 9.88803 -0 0
rfemur -32.189 -4.00617 5.4257
rtibia 67.3786 -0 0
rfoot 17.0948 8.0748 0.546719
rtoes -13.7377 0 0
lowerback 5.27479 2.12035 -1.19221
upperback 1.5168 2.77238 0.140919
thorax -1.26769 1.39446 1.00568
lowerneck -6.31549 -3.39244 2.76011
upperneck 8.47381 -5.02677 2.07422
head 3.8712 -2.2974 -0.0637776
lclavicle 2.54926e-14 -1.3759e-14 -2.05578e-31
lhumerus -47.0297 -12.3708 84.1727
lradius 54.3541 -0 0
lwrist 19.8204 0 0
lhand 0.676719 4.44007 -0.00468048
lfingers 7.12502 -0 0
lthumb 26.2252 32.5159 -0.0483736
rclavicle 2.54926e-14 -1.3759e-14 -2.05578e-31
rhumerus -40.3 12.6553 -67.279
rradius 53.8765 -0 0
rwrist 4.13504 0 0
rhand -23.2132 -27.2834 -0.173937
rfingers 7.12502 -0 0
rthumb 3.23401 -57.049 -0.154963
852
root 3.80998 16.4351 28.3017 -10.1505 9.21198 -1.81969
lfemur -20.1335 3.06997 -15.4668
ltibia 34.3995 -0 0
lfoot -4.12232 -17.6781 0.0452292
ltoes 11.6827 -0 0
rfemur -35.7895 -3.57883 5.43169
rtibia 66.4581 -0 0
rfoot 15.949 6.9513 0.546719
rtoes -12.236 0 0
lowerback 6.2776 1.62704 -1.5898
upperback 1.8679 2.07843 -0.00282619
thorax -1.45263 1.04858 1.09938
lowerneck -6.32832 -3.38821 2.70959
upperneck 8.42897 -5.02863 2.21785
head 3.86376 -2.2942 -0.00754496
lclavicle 2.48124e-14 -1.44684e-14 -2.05578e-31
lhumerus -45.6896 -13.612 83.8205
lradius 54.4887 -0 0
lwrist 20.2189 0 0
lhand 1.53204 4.42721 -0.00468048
lfingers 7.12502 -0 0
lthumb 27.0436 32.377 -0.0483736
rclavicle 2.48124e-14 -1.44684e-14 -2.05578e-31
rhumerus -41.4114 10.9067 -65.5414
rradius 53.6228 -0 0
rwrist 3.72303 0 0
rhand -21.8927 -27.5932 -0.173937
rfingers 7.12502 -0 0
rthumb 4.50869 -57.335 -0.154963
853
root 3.83784 16.4584 28.4407 -10.9029 10.5356 -1.65764
lfemur -18.9935 3.47531 -16.0707
ltibia 34.3766 -0 0
lfoot -4.1981 -19.0566 0.0433974
ltoes 13.461 -0 0
rfemur -39.3557 -3.15582 5.41109
rtibia 65.5458 -0 0
rfoot 14.8138 5.83823 0.52456
rtoes -10.7479 0 0
lowerback 7.27447 1.14515 -1.99216
upperback 2.21741 1.39163 -0.149413
thorax -1.63643 0.706131 1.19332
lowerneck -6.34103 -3.38404 2.65953
upperneck 8.38453 -5.03036 2.36018
head 3.85639 -2.29103 0.0481767
lclavicle 2.41385e-14 -1.51714e-14 -1.97272e-31
lhumerus -44.3466 -14.8335 83.4401
lradius 54.622 -0 0
lwrist 20.6139 0 0
lhand 2.3796 4.41448 -0.00449119
lfingers 7.12502 -0 0
lthumb 27.8546 32.2394 -0.0464173
rclavicle 2.41385e-14 -1.51714e-14 -1.97272e-31
rhumerus -42.5593 9.20752 -63.7951
rradius 53.3713 -0 0
rwrist 3.31477 0 0
rhand -20.5843 -27.9002 -0.166893
rfingers 7.12502 -0 0
rthumb 5.77177 -57.6182 -0.148689
